<?xml version="1.0" encoding="utf-8"?>
<!-- Generator: Adobe Illustrator 19.2.0, SVG Export Plug-In . SVG Version: 6.00 Build 0)  -->
<svg version="1.1" id="Ebene_1" xmlns="http://www.w3.org/2000/svg" xmlns:xlink="http://www.w3.org/1999/xlink" x="0px" y="0px"
	 viewBox="0 0 118.9 91.3" style="enable-background:new 0 0 118.9 91.3;" xml:space="preserve">
<style type="text/css">
	.st0{display:none;}
	.st1{display:inline;fill:#2EAB61;}
	.st2{display:inline;fill:#52B36E;}
	.st3{fill:#2EAB61;}
	.st4{fill:#52B36E;}
	.st5{display:inline;}
	.st6{display:inline;fill:none;stroke:#000000;stroke-miterlimit:10;}
</style>
<g id="Ebene_1_1_" class="st0">
	<polygon class="st1" points="14.5,37.2 24.5,7.2 44.1,7.2 59.5,23.2 	"/>
	<polygon class="st1" points="59.5,23.2 14.5,37.2 30.3,53.4 	"/>
	<polygon class="st2" points="59.5,23.2 74.8,6.2 94.5,6.2 104.5,37.2 	"/>
	<polygon class="st1" points="30.3,53.4 59.5,83.2 59.5,23.2 	"/>
	<polygon class="st2" points="59.5,23.2 104.5,37.2 88.6,53.4 	"/>
	<polygon class="st1" points="88.6,53.4 59.5,83.2 59.5,23.2 	"/>
	<path class="st1" d="M24.3,59.6"/>
	<path class="st1" d="M59.5,23.2"/>
</g>
<path class="st3" d="M59.5,25.2"/>
<polygon class="st3" points="59.5,25.2 44.1,9.2 24.5,9.2 14.5,37.2 30.3,53.4 59.5,83.2 88.6,53.4 "/>
<polygon class="st4" points="94.5,8.2 74.8,8.2 59.5,25.2 88.6,53.4 104.5,37.2 "/>
<g id="Ebene_7" class="st0">
	<g class="st5">
		<polygon class="st3" points="52.3,33.9 59.5,58.7 59.5,8.7 		"/>
		<polygon class="st4" points="66.6,33.9 59.5,58.7 59.5,8.7 		"/>
		<polygon class="st3" points="68.6,33.9 59.5,58.7 86.1,16.4 		"/>
		<polygon class="st4" points="76.7,41.5 59.5,58.7 86.1,16.4 		"/>
		<polygon class="st4" points="80.7,41.5 59.5,58.7 104.6,37.1 		"/>
		<polygon class="st3" points="82.9,54.4 59.5,58.7 104.6,37.1 		"/>
		<polygon class="st4" points="42.2,41.6 59.5,58.7 32.8,16.4 		"/>
		<polygon class="st3" points="50.3,33.9 59.5,58.7 32.8,16.4 		"/>
		<polygon class="st3" points="36,54.5 59.5,58.7 14.3,37.1 		"/>
		<polygon class="st4" points="40.2,43.6 59.5,58.7 14.3,37.1 		"/>
	</g>
</g>
<g id="Ebene_5" class="st0">
	<polygon class="st1" points="78.3,72.9 80.2,71.5 79.9,73.9 82.1,74.8 79.9,75.8 80.2,78.2 78.3,76.7 76.4,78.2 76.6,75.8 
		74.4,74.8 76.6,73.9 76.4,71.5 	"/>
</g>
<g id="Ebene_2" class="st0">
	<polygon class="st6" points="59.5,23.2 74.8,3.2 94.5,3.2 104.5,33.2 59.5,83.2 14.5,33.2 24.5,3.2 44.1,3.2 	"/>
</g>
</svg>
